<svg xmlns="http://www.w3.org/2000/svg" width="23.044" height="23.047" viewBox="0 0 23.044 23.047"><defs><style>.a{fill:#111;}</style></defs><path class="a" d="M7.752,10.186a1.082,1.082,0,0,0-1.269,1.071v2.269a1.082,1.082,0,0,0,.752.99,2.161,2.161,0,1,1-2.912,2.026V5.379A1.078,1.078,0,0,0,3.241,4.3H1.08A1.078,1.078,0,0,0,0,5.379V16.542a6.484,6.484,0,1,0,7.752-6.356ZM9.408-.023A.725.725,0,0,0,8.643.7V2.12a.713.713,0,0,0,.675.716A11.561,11.561,0,0,1,20.162,13.707a.719.719,0,0,0,.716.675h1.445a.725.725,0,0,0,.72-.765A14.439,14.439,0,0,0,9.408-.023ZM9.422,4.3a.726.726,0,0,0-.779.725V6.468a.718.718,0,0,0,.666.716,7.19,7.19,0,0,1,6.523,6.536.723.723,0,0,0,.716.662H18a.729.729,0,0,0,.725-.779,10.128,10.128,0,0,0-9.3-9.3Z" transform="translate(0 0.024)"/></svg>