<svg xmlns="http://www.w3.org/2000/svg" width="20.178" height="20.174" viewBox="0 0 20.178 20.174"><defs><style>.a{fill:#111;}</style></defs><path class="a" d="M10.016,36.74a5.172,5.172,0,1,0,5.172,5.172A5.164,5.164,0,0,0,10.016,36.74Zm0,8.535a3.363,3.363,0,1,1,3.363-3.363,3.369,3.369,0,0,1-3.363,3.363Zm6.59-8.746A1.206,1.206,0,1,1,15.4,35.322,1.2,1.2,0,0,1,16.607,36.528Zm3.426,1.224a5.97,5.97,0,0,0-1.63-4.227,6.009,6.009,0,0,0-4.227-1.63c-1.666-.095-6.658-.095-8.323,0a6,6,0,0,0-4.227,1.625A5.99,5.99,0,0,0,0,37.748C-.1,39.413-.1,44.406,0,46.071A5.97,5.97,0,0,0,1.625,50.3a6.017,6.017,0,0,0,4.227,1.63c1.666.095,6.658.095,8.323,0A5.97,5.97,0,0,0,18.4,50.3a6.009,6.009,0,0,0,1.63-4.227C20.127,44.406,20.127,39.418,20.032,37.752ZM17.88,47.858a3.4,3.4,0,0,1-1.918,1.918c-1.328.527-4.479.405-5.947.405s-4.623.117-5.947-.405a3.4,3.4,0,0,1-1.918-1.918c-.527-1.328-.405-4.479-.405-5.947s-.117-4.623.405-5.947A3.4,3.4,0,0,1,4.07,34.048c1.328-.527,4.479-.405,5.947-.405s4.623-.117,5.947.405a3.4,3.4,0,0,1,1.918,1.918c.527,1.328.405,4.479.405,5.947S18.407,46.535,17.88,47.858Z" transform="translate(0.075 -31.825)"/></svg>