<svg xmlns="http://www.w3.org/2000/svg" width="24.584" height="17.286" viewBox="0 0 24.584 17.286"><defs><style>.a{fill:#111;}</style></defs><path class="a" d="M39,66.7a3.089,3.089,0,0,0-2.174-2.188C34.913,64,27.225,64,27.225,64s-7.688,0-9.6.517A3.089,3.089,0,0,0,15.447,66.7a34.781,34.781,0,0,0,0,11.912,3.043,3.043,0,0,0,2.174,2.153c1.917.517,9.6.517,9.6.517s7.688,0,9.6-.517A3.043,3.043,0,0,0,39,78.616,34.781,34.781,0,0,0,39,66.7ZM24.711,76.316V69.005l6.425,3.655-6.425,3.655Z" transform="translate(-14.933 -64)"/></svg>